<svg width="479" height="462" viewBox="0 0 479 462" fill="none" xmlns="http://www.w3.org/2000/svg">
<rect width="479" height="462" rx="28" fill="url(#paint0_linear_643_394)"/>
<path d="M176.508 407.602H173.086C173.023 407.159 172.896 406.766 172.703 406.422C172.51 406.073 172.263 405.776 171.961 405.531C171.659 405.286 171.31 405.099 170.914 404.969C170.523 404.839 170.099 404.773 169.641 404.773C168.813 404.773 168.091 404.979 167.477 405.391C166.862 405.797 166.385 406.391 166.047 407.172C165.708 407.948 165.539 408.891 165.539 410C165.539 411.141 165.708 412.099 166.047 412.875C166.391 413.651 166.87 414.237 167.484 414.633C168.099 415.029 168.81 415.227 169.617 415.227C170.07 415.227 170.49 415.167 170.875 415.047C171.266 414.927 171.612 414.753 171.914 414.523C172.216 414.289 172.466 414.005 172.664 413.672C172.867 413.339 173.008 412.958 173.086 412.531L176.508 412.547C176.419 413.281 176.198 413.99 175.844 414.672C175.495 415.349 175.023 415.956 174.43 416.492C173.841 417.023 173.138 417.445 172.32 417.758C171.508 418.065 170.589 418.219 169.563 418.219C168.135 418.219 166.859 417.896 165.734 417.25C164.615 416.604 163.729 415.669 163.078 414.445C162.432 413.221 162.109 411.74 162.109 410C162.109 408.255 162.438 406.771 163.094 405.547C163.75 404.323 164.641 403.391 165.766 402.75C166.891 402.104 168.156 401.781 169.563 401.781C170.49 401.781 171.349 401.911 172.141 402.172C172.938 402.432 173.643 402.812 174.258 403.312C174.872 403.807 175.372 404.414 175.758 405.133C176.148 405.852 176.398 406.674 176.508 407.602ZM184.293 418.234C183.079 418.234 182.03 417.977 181.145 417.461C180.264 416.94 179.585 416.216 179.105 415.289C178.626 414.357 178.387 413.276 178.387 412.047C178.387 410.807 178.626 409.724 179.105 408.797C179.585 407.865 180.264 407.141 181.145 406.625C182.03 406.104 183.079 405.844 184.293 405.844C185.507 405.844 186.553 406.104 187.434 406.625C188.319 407.141 189.001 407.865 189.48 408.797C189.96 409.724 190.199 410.807 190.199 412.047C190.199 413.276 189.96 414.357 189.48 415.289C189.001 416.216 188.319 416.94 187.434 417.461C186.553 417.977 185.507 418.234 184.293 418.234ZM184.309 415.656C184.861 415.656 185.322 415.5 185.691 415.188C186.061 414.87 186.34 414.437 186.527 413.891C186.72 413.344 186.816 412.721 186.816 412.023C186.816 411.326 186.72 410.703 186.527 410.156C186.34 409.609 186.061 409.177 185.691 408.859C185.322 408.542 184.861 408.383 184.309 408.383C183.751 408.383 183.283 408.542 182.902 408.859C182.527 409.177 182.243 409.609 182.051 410.156C181.863 410.703 181.77 411.326 181.77 412.023C181.77 412.721 181.863 413.344 182.051 413.891C182.243 414.437 182.527 414.87 182.902 415.188C183.283 415.5 183.751 415.656 184.309 415.656ZM192.363 418V406H195.535V408.117H195.676C195.926 407.414 196.342 406.859 196.926 406.453C197.509 406.047 198.207 405.844 199.02 405.844C199.842 405.844 200.543 406.049 201.121 406.461C201.699 406.867 202.085 407.419 202.277 408.117H202.402C202.647 407.43 203.09 406.88 203.73 406.469C204.376 406.052 205.139 405.844 206.02 405.844C207.139 405.844 208.048 406.201 208.746 406.914C209.449 407.622 209.801 408.628 209.801 409.93V418H206.48V410.586C206.48 409.919 206.303 409.419 205.949 409.086C205.595 408.753 205.152 408.586 204.621 408.586C204.017 408.586 203.546 408.779 203.207 409.164C202.868 409.544 202.699 410.047 202.699 410.672V418H199.473V410.516C199.473 409.927 199.303 409.458 198.965 409.109C198.632 408.76 198.191 408.586 197.645 408.586C197.275 408.586 196.941 408.68 196.645 408.867C196.353 409.049 196.121 409.307 195.949 409.641C195.777 409.969 195.691 410.354 195.691 410.797V418H192.363ZM212.43 418V406H215.758V418H212.43ZM214.102 404.453C213.607 404.453 213.182 404.289 212.828 403.961C212.479 403.628 212.305 403.229 212.305 402.766C212.305 402.307 212.479 401.914 212.828 401.586C213.182 401.253 213.607 401.086 214.102 401.086C214.596 401.086 215.018 401.253 215.367 401.586C215.721 401.914 215.898 402.307 215.898 402.766C215.898 403.229 215.721 403.628 215.367 403.961C215.018 404.289 214.596 404.453 214.102 404.453ZM221.752 411.063V418H218.424V406H221.596V408.117H221.736C222.002 407.419 222.447 406.867 223.072 406.461C223.697 406.049 224.455 405.844 225.346 405.844C226.179 405.844 226.906 406.026 227.525 406.391C228.145 406.755 228.627 407.276 228.971 407.953C229.314 408.625 229.486 409.427 229.486 410.359V418H226.158V410.953C226.163 410.219 225.976 409.646 225.596 409.234C225.215 408.818 224.692 408.609 224.025 408.609C223.577 408.609 223.182 408.706 222.838 408.898C222.499 409.091 222.234 409.372 222.041 409.742C221.854 410.107 221.757 410.547 221.752 411.063ZM237.516 422.75C236.438 422.75 235.513 422.602 234.742 422.305C233.977 422.013 233.367 421.615 232.914 421.109C232.461 420.604 232.167 420.036 232.031 419.406L235.109 418.992C235.203 419.232 235.352 419.456 235.555 419.664C235.758 419.872 236.026 420.039 236.359 420.164C236.698 420.294 237.109 420.359 237.594 420.359C238.318 420.359 238.914 420.182 239.383 419.828C239.857 419.479 240.094 418.893 240.094 418.07V415.875H239.953C239.807 416.208 239.589 416.523 239.297 416.82C239.005 417.117 238.63 417.359 238.172 417.547C237.714 417.734 237.167 417.828 236.531 417.828C235.63 417.828 234.81 417.62 234.07 417.203C233.336 416.781 232.75 416.138 232.313 415.273C231.88 414.404 231.664 413.305 231.664 411.977C231.664 410.617 231.885 409.482 232.328 408.57C232.771 407.659 233.359 406.977 234.094 406.523C234.833 406.07 235.643 405.844 236.523 405.844C237.195 405.844 237.758 405.958 238.211 406.188C238.664 406.411 239.029 406.693 239.305 407.031C239.586 407.365 239.802 407.693 239.953 408.016H240.078V406H243.383V418.117C243.383 419.138 243.133 419.992 242.633 420.68C242.133 421.367 241.44 421.883 240.555 422.227C239.674 422.576 238.661 422.75 237.516 422.75ZM237.586 415.328C238.122 415.328 238.576 415.195 238.945 414.93C239.32 414.659 239.607 414.273 239.805 413.773C240.008 413.268 240.109 412.664 240.109 411.961C240.109 411.258 240.01 410.648 239.813 410.133C239.615 409.612 239.328 409.208 238.953 408.922C238.578 408.635 238.122 408.492 237.586 408.492C237.039 408.492 236.578 408.641 236.203 408.937C235.828 409.229 235.544 409.635 235.352 410.156C235.159 410.677 235.063 411.279 235.063 411.961C235.063 412.654 235.159 413.253 235.352 413.758C235.549 414.258 235.833 414.646 236.203 414.922C236.578 415.193 237.039 415.328 237.586 415.328ZM259.865 406.602C259.803 405.971 259.535 405.482 259.061 405.133C258.587 404.784 257.943 404.609 257.131 404.609C256.579 404.609 256.113 404.687 255.732 404.844C255.352 404.995 255.061 405.206 254.857 405.477C254.66 405.747 254.561 406.055 254.561 406.398C254.55 406.685 254.61 406.935 254.74 407.148C254.876 407.362 255.061 407.547 255.295 407.703C255.529 407.854 255.8 407.987 256.107 408.102C256.415 408.211 256.743 408.305 257.092 408.383L258.529 408.727C259.227 408.883 259.868 409.091 260.451 409.352C261.035 409.612 261.54 409.932 261.967 410.312C262.394 410.693 262.725 411.141 262.959 411.656C263.199 412.172 263.321 412.763 263.326 413.43C263.321 414.409 263.071 415.258 262.576 415.977C262.087 416.69 261.378 417.245 260.451 417.641C259.529 418.031 258.417 418.227 257.115 418.227C255.824 418.227 254.699 418.029 253.74 417.633C252.787 417.237 252.042 416.651 251.506 415.875C250.975 415.094 250.696 414.128 250.67 412.977H253.943C253.98 413.513 254.133 413.961 254.404 414.32C254.68 414.674 255.048 414.943 255.506 415.125C255.969 415.302 256.493 415.391 257.076 415.391C257.649 415.391 258.146 415.307 258.568 415.141C258.995 414.974 259.326 414.742 259.561 414.445C259.795 414.148 259.912 413.807 259.912 413.422C259.912 413.062 259.805 412.76 259.592 412.516C259.383 412.271 259.076 412.062 258.67 411.891C258.269 411.719 257.777 411.562 257.193 411.422L255.451 410.984C254.102 410.656 253.037 410.143 252.256 409.445C251.475 408.747 251.087 407.807 251.092 406.625C251.087 405.656 251.344 404.81 251.865 404.086C252.391 403.362 253.113 402.797 254.029 402.391C254.946 401.984 255.988 401.781 257.154 401.781C258.342 401.781 259.378 401.984 260.264 402.391C261.154 402.797 261.847 403.362 262.342 404.086C262.837 404.81 263.092 405.648 263.107 406.602H259.865ZM270.961 418.234C269.747 418.234 268.698 417.977 267.813 417.461C266.932 416.94 266.253 416.216 265.773 415.289C265.294 414.357 265.055 413.276 265.055 412.047C265.055 410.807 265.294 409.724 265.773 408.797C266.253 407.865 266.932 407.141 267.813 406.625C268.698 406.104 269.747 405.844 270.961 405.844C272.174 405.844 273.221 406.104 274.102 406.625C274.987 407.141 275.669 407.865 276.148 408.797C276.628 409.724 276.867 410.807 276.867 412.047C276.867 413.276 276.628 414.357 276.148 415.289C275.669 416.216 274.987 416.94 274.102 417.461C273.221 417.977 272.174 418.234 270.961 418.234ZM270.977 415.656C271.529 415.656 271.99 415.5 272.359 415.188C272.729 414.87 273.008 414.437 273.195 413.891C273.388 413.344 273.484 412.721 273.484 412.023C273.484 411.326 273.388 410.703 273.195 410.156C273.008 409.609 272.729 409.177 272.359 408.859C271.99 408.542 271.529 408.383 270.977 408.383C270.419 408.383 269.951 408.542 269.57 408.859C269.195 409.177 268.911 409.609 268.719 410.156C268.531 410.703 268.438 411.326 268.438 412.023C268.438 412.721 268.531 413.344 268.719 413.891C268.911 414.437 269.195 414.87 269.57 415.188C269.951 415.5 270.419 415.656 270.977 415.656ZM284.453 418.234C283.24 418.234 282.19 417.977 281.305 417.461C280.424 416.94 279.745 416.216 279.266 415.289C278.786 414.357 278.547 413.276 278.547 412.047C278.547 410.807 278.786 409.724 279.266 408.797C279.745 407.865 280.424 407.141 281.305 406.625C282.19 406.104 283.24 405.844 284.453 405.844C285.667 405.844 286.714 406.104 287.594 406.625C288.479 407.141 289.161 407.865 289.641 408.797C290.12 409.724 290.359 410.807 290.359 412.047C290.359 413.276 290.12 414.357 289.641 415.289C289.161 416.216 288.479 416.94 287.594 417.461C286.714 417.977 285.667 418.234 284.453 418.234ZM284.469 415.656C285.021 415.656 285.482 415.5 285.852 415.188C286.221 414.87 286.5 414.437 286.688 413.891C286.88 413.344 286.977 412.721 286.977 412.023C286.977 411.326 286.88 410.703 286.688 410.156C286.5 409.609 286.221 409.177 285.852 408.859C285.482 408.542 285.021 408.383 284.469 408.383C283.911 408.383 283.443 408.542 283.063 408.859C282.688 409.177 282.404 409.609 282.211 410.156C282.023 410.703 281.93 411.326 281.93 412.023C281.93 412.721 282.023 413.344 282.211 413.891C282.404 414.437 282.688 414.87 283.063 415.188C283.443 415.5 283.911 415.656 284.469 415.656ZM295.852 411.063V418H292.523V406H295.695V408.117H295.836C296.102 407.419 296.547 406.867 297.172 406.461C297.797 406.049 298.555 405.844 299.445 405.844C300.279 405.844 301.005 406.026 301.625 406.391C302.245 406.755 302.727 407.276 303.07 407.953C303.414 408.625 303.586 409.427 303.586 410.359V418H300.258V410.953C300.263 410.219 300.076 409.646 299.695 409.234C299.315 408.818 298.792 408.609 298.125 408.609C297.677 408.609 297.281 408.706 296.938 408.898C296.599 409.091 296.333 409.372 296.141 409.742C295.953 410.107 295.857 410.547 295.852 411.063ZM310.186 402L309.881 413.203H307.021L306.709 402H310.186ZM308.451 418.203C307.936 418.203 307.493 418.021 307.123 417.656C306.753 417.286 306.571 416.844 306.576 416.328C306.571 415.818 306.753 415.38 307.123 415.016C307.493 414.651 307.936 414.469 308.451 414.469C308.946 414.469 309.381 414.651 309.756 415.016C310.131 415.38 310.321 415.818 310.326 416.328C310.321 416.672 310.23 416.987 310.053 417.273C309.881 417.555 309.654 417.781 309.373 417.953C309.092 418.12 308.785 418.203 308.451 418.203Z" fill="white"/>
<path d="M133.468 213.909H135.712L139.132 219.86H139.272L142.692 213.909H144.936L140.186 221.861V227H138.218V221.861L133.468 213.909ZM149.166 227.198C148.245 227.198 147.442 226.987 146.756 226.565C146.07 226.143 145.537 225.553 145.158 224.795C144.778 224.036 144.589 223.15 144.589 222.136C144.589 221.117 144.778 220.227 145.158 219.464C145.537 218.701 146.07 218.109 146.756 217.687C147.442 217.265 148.245 217.054 149.166 217.054C150.086 217.054 150.889 217.265 151.575 217.687C152.261 218.109 152.794 218.701 153.173 219.464C153.553 220.227 153.742 221.117 153.742 222.136C153.742 223.15 153.553 224.036 153.173 224.795C152.794 225.553 152.261 226.143 151.575 226.565C150.889 226.987 150.086 227.198 149.166 227.198ZM149.172 225.594C149.769 225.594 150.263 225.436 150.655 225.121C151.047 224.805 151.337 224.386 151.524 223.862C151.716 223.337 151.812 222.76 151.812 222.129C151.812 221.503 151.716 220.928 151.524 220.403C151.337 219.875 151.047 219.451 150.655 219.131C150.263 218.812 149.769 218.652 149.172 218.652C148.571 218.652 148.073 218.812 147.676 219.131C147.284 219.451 146.992 219.875 146.801 220.403C146.613 220.928 146.519 221.503 146.519 222.129C146.519 222.76 146.613 223.337 146.801 223.862C146.992 224.386 147.284 224.805 147.676 225.121C148.073 225.436 148.571 225.594 149.172 225.594ZM162.095 222.928V217.182H164.013V227H162.133V225.3H162.031C161.805 225.824 161.443 226.261 160.945 226.61C160.45 226.955 159.834 227.128 159.097 227.128C158.467 227.128 157.908 226.989 157.422 226.712C156.941 226.431 156.562 226.016 156.285 225.466C156.012 224.916 155.876 224.237 155.876 223.427V217.182H157.787V223.197C157.787 223.866 157.972 224.398 158.343 224.795C158.714 225.191 159.195 225.389 159.788 225.389C160.146 225.389 160.501 225.3 160.855 225.121C161.213 224.942 161.509 224.671 161.744 224.309C161.982 223.947 162.099 223.487 162.095 222.928ZM166.581 227V217.182H168.428V218.741H168.53C168.709 218.213 169.025 217.798 169.476 217.495C169.932 217.188 170.448 217.035 171.023 217.035C171.142 217.035 171.283 217.039 171.445 217.048C171.611 217.056 171.741 217.067 171.835 217.08V218.908C171.758 218.886 171.622 218.863 171.426 218.837C171.23 218.808 171.034 218.793 170.838 218.793C170.386 218.793 169.983 218.888 169.63 219.08C169.28 219.268 169.003 219.53 168.799 219.866C168.594 220.199 168.492 220.578 168.492 221.004V227H166.581ZM185.546 217.348C185.478 216.743 185.196 216.274 184.702 215.942C184.208 215.605 183.586 215.437 182.836 215.437C182.299 215.437 181.834 215.522 181.442 215.692C181.05 215.859 180.745 216.089 180.528 216.383C180.315 216.673 180.209 217.003 180.209 217.374C180.209 217.685 180.281 217.953 180.426 218.179C180.575 218.405 180.769 218.594 181.008 218.748C181.25 218.897 181.51 219.023 181.787 219.125C182.064 219.223 182.331 219.304 182.586 219.368L183.865 219.7C184.282 219.803 184.711 219.941 185.15 220.116C185.589 220.29 185.995 220.521 186.37 220.806C186.745 221.092 187.048 221.445 187.278 221.867C187.513 222.289 187.63 222.794 187.63 223.382C187.63 224.124 187.438 224.782 187.054 225.357C186.675 225.933 186.123 226.386 185.399 226.719C184.679 227.051 183.807 227.217 182.785 227.217C181.804 227.217 180.956 227.062 180.241 226.751C179.525 226.44 178.964 225.999 178.559 225.428C178.155 224.852 177.931 224.17 177.888 223.382H179.87C179.908 223.855 180.062 224.249 180.33 224.565C180.603 224.876 180.95 225.108 181.372 225.261C181.798 225.411 182.265 225.485 182.772 225.485C183.33 225.485 183.826 225.398 184.261 225.223C184.7 225.044 185.045 224.797 185.297 224.482C185.548 224.162 185.674 223.789 185.674 223.363C185.674 222.975 185.563 222.658 185.341 222.411C185.124 222.163 184.828 221.959 184.453 221.797C184.082 221.635 183.662 221.492 183.194 221.369L181.647 220.947C180.598 220.661 179.767 220.241 179.154 219.688C178.544 219.134 178.24 218.401 178.24 217.489C178.24 216.734 178.444 216.076 178.853 215.513C179.263 214.951 179.816 214.514 180.515 214.203C181.214 213.888 182.003 213.73 182.88 213.73C183.767 213.73 184.549 213.886 185.226 214.197C185.908 214.508 186.445 214.936 186.837 215.482C187.229 216.023 187.434 216.645 187.451 217.348H185.546ZM193.972 227.198C193.052 227.198 192.248 226.987 191.562 226.565C190.876 226.143 190.344 225.553 189.964 224.795C189.585 224.036 189.396 223.15 189.396 222.136C189.396 221.117 189.585 220.227 189.964 219.464C190.344 218.701 190.876 218.109 191.562 217.687C192.248 217.265 193.052 217.054 193.972 217.054C194.893 217.054 195.696 217.265 196.382 217.687C197.068 218.109 197.601 218.701 197.98 219.464C198.359 220.227 198.549 221.117 198.549 222.136C198.549 223.15 198.359 224.036 197.98 224.795C197.601 225.553 197.068 226.143 196.382 226.565C195.696 226.987 194.893 227.198 193.972 227.198ZM193.979 225.594C194.575 225.594 195.07 225.436 195.462 225.121C195.854 224.805 196.143 224.386 196.331 223.862C196.523 223.337 196.619 222.76 196.619 222.129C196.619 221.503 196.523 220.928 196.331 220.403C196.143 219.875 195.854 219.451 195.462 219.131C195.07 218.812 194.575 218.652 193.979 218.652C193.378 218.652 192.879 218.812 192.483 219.131C192.091 219.451 191.799 219.875 191.607 220.403C191.42 220.928 191.326 221.503 191.326 222.129C191.326 222.76 191.42 223.337 191.607 223.862C191.799 224.386 192.091 224.805 192.483 225.121C192.879 225.436 193.378 225.594 193.979 225.594ZM204.818 227.198C203.868 227.198 203.049 226.983 202.363 226.553C201.682 226.118 201.157 225.519 200.791 224.756C200.424 223.994 200.241 223.12 200.241 222.136C200.241 221.138 200.429 220.259 200.804 219.496C201.179 218.729 201.707 218.13 202.389 217.7C203.071 217.269 203.874 217.054 204.799 217.054C205.544 217.054 206.209 217.192 206.793 217.469C207.377 217.742 207.848 218.126 208.206 218.62C208.568 219.114 208.783 219.692 208.851 220.352H206.991C206.889 219.892 206.655 219.496 206.288 219.163C205.926 218.831 205.44 218.665 204.831 218.665C204.298 218.665 203.831 218.805 203.431 219.087C203.035 219.364 202.726 219.76 202.504 220.276C202.282 220.787 202.172 221.392 202.172 222.091C202.172 222.807 202.28 223.425 202.498 223.945C202.715 224.464 203.022 224.867 203.418 225.153C203.819 225.438 204.29 225.581 204.831 225.581C205.193 225.581 205.521 225.515 205.815 225.383C206.113 225.246 206.363 225.053 206.563 224.801C206.767 224.55 206.91 224.247 206.991 223.893H208.851C208.783 224.528 208.576 225.095 208.231 225.594C207.886 226.092 207.424 226.484 206.844 226.77C206.269 227.055 205.593 227.198 204.818 227.198ZM210.895 227V217.182H212.806V227H210.895ZM211.86 215.667C211.528 215.667 211.242 215.556 211.004 215.335C210.769 215.109 210.652 214.84 210.652 214.529C210.652 214.214 210.769 213.945 211.004 213.724C211.242 213.498 211.528 213.385 211.86 213.385C212.193 213.385 212.476 213.498 212.71 213.724C212.949 213.945 213.068 214.214 213.068 214.529C213.068 214.84 212.949 215.109 212.71 215.335C212.476 215.556 212.193 215.667 211.86 215.667ZM218.235 227.217C217.613 227.217 217.05 227.102 216.547 226.872C216.044 226.638 215.646 226.299 215.352 225.856C215.062 225.413 214.917 224.869 214.917 224.226C214.917 223.672 215.024 223.216 215.237 222.858C215.45 222.5 215.738 222.217 216.1 222.008C216.462 221.799 216.867 221.641 217.314 221.535C217.762 221.428 218.218 221.347 218.682 221.292C219.27 221.224 219.748 221.168 220.114 221.126C220.481 221.079 220.747 221.004 220.913 220.902C221.079 220.8 221.162 220.634 221.162 220.403V220.359C221.162 219.8 221.005 219.368 220.689 219.061C220.378 218.754 219.914 218.601 219.296 218.601C218.652 218.601 218.145 218.744 217.775 219.029C217.408 219.31 217.155 219.624 217.014 219.969L215.218 219.56C215.431 218.963 215.742 218.482 216.151 218.115C216.564 217.744 217.04 217.476 217.576 217.31C218.113 217.139 218.678 217.054 219.27 217.054C219.662 217.054 220.078 217.101 220.517 217.195C220.96 217.284 221.373 217.45 221.757 217.693C222.145 217.936 222.462 218.283 222.709 218.735C222.956 219.183 223.08 219.764 223.08 220.48V227H221.214V225.658H221.137C221.013 225.905 220.828 226.148 220.581 226.386C220.334 226.625 220.016 226.823 219.628 226.981C219.241 227.138 218.776 227.217 218.235 227.217ZM218.65 225.683C219.179 225.683 219.63 225.579 220.005 225.37C220.385 225.161 220.672 224.888 220.868 224.552C221.069 224.211 221.169 223.847 221.169 223.459V222.193C221.101 222.261 220.968 222.325 220.772 222.385C220.581 222.44 220.361 222.489 220.114 222.532C219.867 222.57 219.626 222.607 219.392 222.641C219.157 222.67 218.961 222.696 218.804 222.717C218.433 222.764 218.094 222.843 217.787 222.954C217.485 223.065 217.242 223.224 217.059 223.433C216.88 223.638 216.79 223.911 216.79 224.251C216.79 224.724 216.965 225.082 217.314 225.325C217.664 225.564 218.109 225.683 218.65 225.683ZM227.537 213.909V227H225.626V213.909H227.537ZM237.588 227L233.958 213.909H236.035L238.585 224.047H238.707L241.36 213.909H243.418L246.071 224.053H246.192L248.736 213.909H250.82L247.183 227H245.195L242.44 217.195H242.338L239.583 227H237.588ZM254.358 227.217C253.736 227.217 253.173 227.102 252.67 226.872C252.168 226.638 251.769 226.299 251.475 225.856C251.185 225.413 251.04 224.869 251.04 224.226C251.04 223.672 251.147 223.216 251.36 222.858C251.573 222.5 251.861 222.217 252.223 222.008C252.585 221.799 252.99 221.641 253.437 221.535C253.885 221.428 254.341 221.347 254.805 221.292C255.393 221.224 255.871 221.168 256.237 221.126C256.604 221.079 256.87 221.004 257.036 220.902C257.202 220.8 257.285 220.634 257.285 220.403V220.359C257.285 219.8 257.128 219.368 256.812 219.061C256.501 218.754 256.037 218.601 255.419 218.601C254.775 218.601 254.268 218.744 253.898 219.029C253.531 219.31 253.278 219.624 253.137 219.969L251.341 219.56C251.554 218.963 251.865 218.482 252.274 218.115C252.687 217.744 253.163 217.476 253.699 217.31C254.236 217.139 254.801 217.054 255.393 217.054C255.785 217.054 256.201 217.101 256.64 217.195C257.083 217.284 257.496 217.45 257.88 217.693C258.268 217.936 258.585 218.283 258.832 218.735C259.079 219.183 259.203 219.764 259.203 220.48V227H257.337V225.658H257.26C257.136 225.905 256.951 226.148 256.704 226.386C256.457 226.625 256.139 226.823 255.751 226.981C255.364 227.138 254.899 227.217 254.358 227.217ZM254.773 225.683C255.302 225.683 255.753 225.579 256.128 225.37C256.508 225.161 256.795 224.888 256.991 224.552C257.192 224.211 257.292 223.847 257.292 223.459V222.193C257.224 222.261 257.092 222.325 256.896 222.385C256.704 222.44 256.484 222.489 256.237 222.532C255.99 222.57 255.749 222.607 255.515 222.641C255.28 222.67 255.084 222.696 254.927 222.717C254.556 222.764 254.217 222.843 253.91 222.954C253.608 223.065 253.365 223.224 253.182 223.433C253.003 223.638 252.913 223.911 252.913 224.251C252.913 224.724 253.088 225.082 253.437 225.325C253.787 225.564 254.232 225.683 254.773 225.683ZM263.66 213.909V227H261.749V213.909H263.66ZM268.142 213.909V227H266.231V213.909H268.142ZM275.477 227V217.182H277.388V227H275.477ZM276.442 215.667C276.11 215.667 275.824 215.556 275.586 215.335C275.351 215.109 275.234 214.84 275.234 214.529C275.234 214.214 275.351 213.945 275.586 213.724C275.824 213.498 276.11 213.385 276.442 213.385C276.775 213.385 277.058 213.498 277.293 213.724C277.531 213.945 277.65 214.214 277.65 214.529C277.65 214.84 277.531 215.109 277.293 215.335C277.058 215.556 276.775 215.667 276.442 215.667ZM287.317 219.579L285.585 219.886C285.512 219.664 285.397 219.453 285.239 219.253C285.086 219.053 284.877 218.888 284.613 218.761C284.349 218.633 284.019 218.569 283.622 218.569C283.081 218.569 282.629 218.69 282.267 218.933C281.905 219.172 281.724 219.481 281.724 219.86C281.724 220.188 281.845 220.452 282.088 220.653C282.331 220.853 282.723 221.017 283.264 221.145L284.824 221.503C285.727 221.712 286.401 222.033 286.844 222.468C287.287 222.903 287.509 223.467 287.509 224.162C287.509 224.75 287.338 225.274 286.997 225.734C286.661 226.19 286.19 226.548 285.585 226.808C284.984 227.068 284.287 227.198 283.494 227.198C282.395 227.198 281.498 226.964 280.803 226.495C280.109 226.022 279.683 225.351 279.525 224.482L281.372 224.2C281.487 224.682 281.724 225.046 282.082 225.293C282.44 225.536 282.906 225.658 283.482 225.658C284.108 225.658 284.609 225.528 284.984 225.268C285.359 225.004 285.546 224.682 285.546 224.303C285.546 223.996 285.431 223.738 285.201 223.529C284.975 223.32 284.628 223.163 284.159 223.056L282.497 222.692C281.581 222.483 280.903 222.151 280.465 221.695C280.03 221.239 279.813 220.661 279.813 219.962C279.813 219.383 279.975 218.876 280.298 218.441C280.622 218.006 281.07 217.668 281.641 217.425C282.212 217.178 282.866 217.054 283.603 217.054C284.664 217.054 285.499 217.284 286.109 217.744C286.718 218.2 287.121 218.812 287.317 219.579ZM294.527 227V213.909H296.502V225.3H302.434V227H294.527ZM308.669 227.198C307.749 227.198 306.946 226.987 306.26 226.565C305.574 226.143 305.041 225.553 304.662 224.795C304.282 224.036 304.093 223.15 304.093 222.136C304.093 221.117 304.282 220.227 304.662 219.464C305.041 218.701 305.574 218.109 306.26 217.687C306.946 217.265 307.749 217.054 308.669 217.054C309.59 217.054 310.393 217.265 311.079 217.687C311.765 218.109 312.298 218.701 312.677 219.464C313.057 220.227 313.246 221.117 313.246 222.136C313.246 223.15 313.057 224.036 312.677 224.795C312.298 225.553 311.765 226.143 311.079 226.565C310.393 226.987 309.59 227.198 308.669 227.198ZM308.676 225.594C309.272 225.594 309.767 225.436 310.159 225.121C310.551 224.805 310.841 224.386 311.028 223.862C311.22 223.337 311.316 222.76 311.316 222.129C311.316 221.503 311.22 220.928 311.028 220.403C310.841 219.875 310.551 219.451 310.159 219.131C309.767 218.812 309.272 218.652 308.676 218.652C308.075 218.652 307.576 218.812 307.18 219.131C306.788 219.451 306.496 219.875 306.304 220.403C306.117 220.928 306.023 221.503 306.023 222.129C306.023 222.76 306.117 223.337 306.304 223.862C306.496 224.386 306.788 224.805 307.18 225.121C307.576 225.436 308.075 225.594 308.676 225.594ZM318.237 227.217C317.615 227.217 317.052 227.102 316.549 226.872C316.046 226.638 315.648 226.299 315.354 225.856C315.064 225.413 314.919 224.869 314.919 224.226C314.919 223.672 315.026 223.216 315.239 222.858C315.452 222.5 315.74 222.217 316.102 222.008C316.464 221.799 316.869 221.641 317.316 221.535C317.764 221.428 318.22 221.347 318.684 221.292C319.272 221.224 319.75 221.168 320.116 221.126C320.483 221.079 320.749 221.004 320.915 220.902C321.081 220.8 321.164 220.634 321.164 220.403V220.359C321.164 219.8 321.007 219.368 320.691 219.061C320.38 218.754 319.916 218.601 319.298 218.601C318.654 218.601 318.147 218.744 317.777 219.029C317.41 219.31 317.157 219.624 317.016 219.969L315.22 219.56C315.433 218.963 315.744 218.482 316.153 218.115C316.566 217.744 317.041 217.476 317.578 217.31C318.115 217.139 318.68 217.054 319.272 217.054C319.664 217.054 320.08 217.101 320.519 217.195C320.962 217.284 321.375 217.45 321.759 217.693C322.147 217.936 322.464 218.283 322.711 218.735C322.958 219.183 323.082 219.764 323.082 220.48V227H321.215V225.658H321.139C321.015 225.905 320.83 226.148 320.583 226.386C320.335 226.625 320.018 226.823 319.63 226.981C319.242 227.138 318.778 227.217 318.237 227.217ZM318.652 225.683C319.181 225.683 319.632 225.579 320.007 225.37C320.387 225.161 320.674 224.888 320.87 224.552C321.071 224.211 321.171 223.847 321.171 223.459V222.193C321.103 222.261 320.97 222.325 320.774 222.385C320.583 222.44 320.363 222.489 320.116 222.532C319.869 222.57 319.628 222.607 319.394 222.641C319.159 222.67 318.963 222.696 318.806 222.717C318.435 222.764 318.096 222.843 317.789 222.954C317.487 223.065 317.244 223.224 317.061 223.433C316.882 223.638 316.792 223.911 316.792 224.251C316.792 224.724 316.967 225.082 317.316 225.325C317.666 225.564 318.111 225.683 318.652 225.683ZM329.303 227.192C328.51 227.192 327.803 226.989 327.181 226.585C326.563 226.175 326.077 225.594 325.723 224.839C325.374 224.081 325.199 223.171 325.199 222.11C325.199 221.049 325.376 220.141 325.73 219.387C326.088 218.633 326.578 218.055 327.2 217.655C327.822 217.254 328.527 217.054 329.316 217.054C329.925 217.054 330.415 217.156 330.786 217.361C331.161 217.561 331.451 217.795 331.655 218.064C331.864 218.332 332.026 218.569 332.141 218.773H332.256V213.909H334.167V227H332.301V225.472H332.141C332.026 225.681 331.86 225.92 331.642 226.188C331.429 226.457 331.135 226.691 330.76 226.891C330.385 227.092 329.9 227.192 329.303 227.192ZM329.725 225.562C330.275 225.562 330.739 225.417 331.118 225.127C331.502 224.833 331.792 224.426 331.988 223.906C332.188 223.386 332.288 222.781 332.288 222.091C332.288 221.409 332.19 220.812 331.994 220.301C331.798 219.79 331.51 219.391 331.131 219.106C330.752 218.82 330.283 218.678 329.725 218.678C329.15 218.678 328.67 218.827 328.287 219.125C327.903 219.423 327.613 219.83 327.417 220.346C327.226 220.862 327.13 221.443 327.13 222.091C327.13 222.747 327.228 223.337 327.424 223.862C327.62 224.386 327.91 224.801 328.293 225.108C328.681 225.411 329.158 225.562 329.725 225.562ZM336.895 227V217.182H338.806V227H336.895ZM337.86 215.667C337.528 215.667 337.242 215.556 337.004 215.335C336.769 215.109 336.652 214.84 336.652 214.529C336.652 214.214 336.769 213.945 337.004 213.724C337.242 213.498 337.528 213.385 337.86 213.385C338.193 213.385 338.476 213.498 338.71 213.724C338.949 213.945 339.068 214.214 339.068 214.529C339.068 214.84 338.949 215.109 338.71 215.335C338.476 215.556 338.193 215.667 337.86 215.667ZM343.289 221.17V227H341.378V217.182H343.212V218.78H343.334C343.559 218.26 343.913 217.842 344.395 217.527C344.88 217.212 345.492 217.054 346.229 217.054C346.898 217.054 347.484 217.195 347.987 217.476C348.49 217.753 348.88 218.166 349.157 218.716C349.434 219.266 349.572 219.945 349.572 220.755V227H347.661V220.985C347.661 220.273 347.476 219.717 347.105 219.317C346.734 218.912 346.225 218.71 345.577 218.71C345.134 218.71 344.74 218.805 344.395 218.997C344.054 219.189 343.783 219.47 343.583 219.841C343.387 220.207 343.289 220.651 343.289 221.17ZM356.252 230.886C355.472 230.886 354.801 230.784 354.238 230.58C353.68 230.375 353.224 230.104 352.87 229.768C352.517 229.431 352.253 229.063 352.078 228.662L353.721 227.984C353.836 228.172 353.989 228.37 354.181 228.579C354.377 228.792 354.641 228.973 354.973 229.122C355.31 229.271 355.743 229.346 356.271 229.346C356.995 229.346 357.594 229.169 358.067 228.815C358.54 228.466 358.777 227.908 358.777 227.141V225.21H358.655C358.54 225.419 358.374 225.651 358.157 225.907C357.944 226.163 357.65 226.384 357.275 226.572C356.9 226.759 356.412 226.853 355.811 226.853C355.035 226.853 354.336 226.672 353.714 226.31C353.096 225.943 352.606 225.404 352.244 224.692C351.886 223.977 351.707 223.097 351.707 222.053C351.707 221.009 351.884 220.114 352.238 219.368C352.596 218.622 353.086 218.051 353.708 217.655C354.33 217.254 355.035 217.054 355.824 217.054C356.433 217.054 356.925 217.156 357.3 217.361C357.675 217.561 357.967 217.795 358.176 218.064C358.389 218.332 358.553 218.569 358.668 218.773H358.809V217.182H360.682V227.217C360.682 228.061 360.486 228.754 360.093 229.295C359.701 229.836 359.171 230.237 358.502 230.496C357.837 230.756 357.087 230.886 356.252 230.886ZM356.233 225.268C356.782 225.268 357.247 225.14 357.626 224.884C358.01 224.624 358.299 224.254 358.495 223.772C358.696 223.286 358.796 222.705 358.796 222.027C358.796 221.366 358.698 220.785 358.502 220.282C358.306 219.779 358.018 219.387 357.639 219.106C357.26 218.82 356.791 218.678 356.233 218.678C355.657 218.678 355.178 218.827 354.794 219.125C354.411 219.419 354.121 219.82 353.925 220.327C353.733 220.834 353.638 221.401 353.638 222.027C353.638 222.67 353.736 223.235 353.932 223.721C354.128 224.207 354.417 224.586 354.801 224.859C355.189 225.131 355.666 225.268 356.233 225.268Z" fill="white"/>
<path opacity="0.2" d="M371 221C371 192.281 361.562 164.357 344.139 141.527C326.716 118.696 302.273 102.224 274.572 94.6443C246.871 87.065 217.447 88.7988 190.828 99.579C164.208 110.359 141.869 129.588 127.248 154.307C112.627 179.026 106.534 207.864 109.907 236.385C113.279 264.906 125.931 291.527 145.915 312.154C165.899 332.78 192.107 346.268 220.507 350.542C248.906 354.815 277.923 349.638 303.092 335.806L297.667 325.933C274.662 338.576 248.14 343.308 222.183 339.402C196.226 335.496 172.271 323.168 154.006 304.315C135.74 285.463 124.177 261.13 121.094 235.062C118.011 208.994 123.58 182.635 136.944 160.042C150.308 137.449 170.726 119.874 195.056 110.02C219.386 100.167 246.28 98.5825 271.599 105.51C296.918 112.438 319.259 127.493 335.184 148.361C351.109 169.228 359.735 194.75 359.735 221H371Z" fill="#00ABFB"/>
<defs>
<linearGradient id="paint0_linear_643_394" x1="239.5" y1="0" x2="239.5" y2="462" gradientUnits="userSpaceOnUse">
<stop stop-color="#ABE4FF"/>
<stop offset="1" stop-color="#00ABFB"/>
</linearGradient>
</defs>
</svg>
